<svg id="Capa_1" fill="#e7434e" enable-background="new 0 0 511.833 511.833" height="512" viewBox="0 0 511.833 511.833" width="512" xmlns="http://www.w3.org/2000/svg"><g><path d="m250.085 214.73c-2.078-3.584-6.668-4.802-10.25-2.726-3.583 2.079-4.803 6.668-2.725 10.251l15.211 26.227-39.772 19.896c-5.264 2.633-8.534 7.925-8.534 13.811v2.64c0 9.318-7.581 16.899-16.898 16.899-9.318 0-16.899-7.581-16.899-16.899v-2.64c0-5.886-3.27-11.178-8.533-13.812l-39.771-19.895 48.105-82.941c.663-1.143 1.012-2.441 1.012-3.763v-58.308h4.43c4.142 0 7.5-3.357 7.5-7.5s-3.358-7.5-7.5-7.5h-7.572c-4.487 0-8.138-3.651-8.138-8.139s3.651-8.139 8.138-8.139h38.455c4.487 0 8.138 3.651 8.138 8.139s-3.651 8.139-8.138 8.139h-4.656c-4.142 0-7.5 3.357-7.5 7.5s3.358 7.5 7.5 7.5h1.514v58.308c0 1.321.349 2.62 1.012 3.763l16.845 29.043c1.392 2.399 3.908 3.738 6.495 3.738 1.277 0 2.572-.326 3.756-1.014 3.583-2.078 4.803-6.667 2.725-10.25l-15.833-27.298v-59.569c6.75-4.046 11.28-11.433 11.28-19.859 0-8.263-4.357-15.524-10.891-19.618l4.675-33.783c.939-6.785-1.103-13.639-5.602-18.804-4.499-5.165-11.008-8.127-17.859-8.127h-25.378c-6.85 0-13.359 2.962-17.859 8.127-4.499 5.165-6.541 12.019-5.602 18.804l4.675 33.783c-6.534 4.094-10.891 11.355-10.891 19.618 0 8.427 4.53 15.813 11.28 19.859v59.57l-51.096 88.098c-15.21 26.224-23.25 56.108-23.25 86.424v148.106c0 16.235 13.208 29.444 29.444 29.444h151.975c16.235 0 29.444-13.209 29.444-29.444v-148.107c0-30.314-8.04-60.199-23.25-86.424zm-82.206-196.75c1.674-1.922 4-2.98 6.548-2.98h25.378c2.549 0 4.875 1.059 6.548 2.98 1.674 1.921 2.403 4.369 2.054 6.894l-4.472 32.319h-33.639l-4.472-32.319c-.348-2.524.381-4.973 2.055-6.894zm109.669 464.409c0 7.965-6.479 14.444-14.444 14.444h-151.975c-7.965 0-14.444-6.479-14.444-14.444v-148.107c0-25.325 6.163-50.312 17.847-72.719l40.442 20.229c.15.076.244.228.244.396v2.64c0 17.59 14.31 31.899 31.899 31.899s31.898-14.31 31.898-31.899v-2.64c0-.169.094-.32.245-.396l40.442-20.23c11.683 22.408 17.847 47.395 17.847 72.719v148.108z"/><path d="m242.26 343.478h-58.047c-4.142 0-7.5 3.357-7.5 7.5s3.358 7.5 7.5 7.5h58.047c.879 0 1.595.716 1.595 1.596v88.85c0 .879-.715 1.595-1.595 1.595h-110.287c-.879 0-1.595-.716-1.595-1.595v-88.85c0-.88.716-1.596 1.595-1.596h20.277c4.142 0 7.5-3.357 7.5-7.5s-3.358-7.5-7.5-7.5h-20.277c-9.151 0-16.595 7.444-16.595 16.596v88.85c0 9.15 7.444 16.595 16.595 16.595h110.287c9.15 0 16.595-7.444 16.595-16.595v-88.85c0-9.152-7.445-16.596-16.595-16.596z"/><path d="m423.62 489.13-35.375-18.18v-117.293c6.935-3.058 13.263-7.496 18.515-13.126 10.639-11.405 16.118-26.87 15.034-42.43l-6.65-95.489c-.288-4.131-3.853-7.261-8.003-6.96-4.132.287-7.248 3.87-6.96 8.003l1.789 25.681h-72.983l6.441-92.48h60.102l2.426 34.837c.288 4.131 3.87 7.253 8.002 6.96 4.133-.287 7.249-3.87 6.961-8.003l-2.626-37.711c-.433-6.215-5.652-11.083-11.882-11.083h-65.863c-6.229 0-11.449 4.868-11.882 11.083l-11.503 165.163c-1.084 15.56 4.396 31.024 15.034 42.43 5.751 6.166 12.797 10.894 20.515 13.952v116.466l-35.376 18.181c-4.951 2.545-7.495 8.102-6.186 13.513 1.309 5.41 6.111 9.189 11.679 9.189h103.301c5.567 0 10.37-3.779 11.679-9.189 1.307-5.412-1.236-10.968-6.189-13.514zm-88.456-158.831c-7.927-8.497-11.847-19.562-11.04-31.154l3.817-54.809h75.073l3.817 54.809c.807 11.593-3.113 22.657-11.04 31.154-7.927 8.499-18.692 13.179-30.313 13.179s-22.387-4.68-30.314-13.179zm-8.002 166.534 28.476-14.634c2.501-1.285 4.072-3.86 4.072-6.671v-117.35c1.909.198 3.834.3 5.768.3 2.612 0 5.205-.199 7.768-.558v117.609c0 2.811 1.571 5.386 4.072 6.671l28.476 14.634h-78.632z"/></g></svg>