<svg id="Capa_1" fill="#e7434e" enable-background="new 0 0 512 512" height="512" viewBox="0 0 512 512" width="512" xmlns="http://www.w3.org/2000/svg"><g><g><path d="m488.022 445.971c3.971-5.321 3.971-12.62 0-17.941-1.102-1.478-16.009-21.165-39.468-38.661-16.452 9.517-27.554 27.296-27.554 47.631s11.102 38.114 27.554 47.632c23.459-17.496 38.366-37.184 39.468-38.661z"/><path d="m391 437c0-25.759 11.533-48.861 29.689-64.461-13.594-6.311-28.671-10.539-44.689-10.539-44.205 0-81.262 32.152-99.646 51.614-13.993-14.538-31.826-24.943-51.695-29.91l-5.021-1.255c-4.48-1.12-9.228-.114-12.869 2.729-3.641 2.842-5.769 7.203-5.769 11.822v80c0 4.619 2.128 8.98 5.769 11.823 2.664 2.08 5.92 3.177 9.231 3.177 1.214 0 2.436-.147 3.638-.448l5.021-1.255c19.869-4.967 37.703-15.373 51.695-29.91 18.384 19.461 55.441 51.613 99.646 51.613 16.018 0 31.095-4.228 44.689-10.539-18.156-15.6-29.689-38.702-29.689-64.461z"/></g><g><path d="m106.674 331.9-96.887 96.887c-11.716 11.716-11.716 30.711 0 42.426 11.716 11.716 30.711 11.716 42.426 0l96.887-96.887c-9.341-3.963-17.928-9.717-25.319-17.108-7.39-7.39-13.144-15.978-17.107-25.318z"/><g><path d="m500.337 275.905c-12.465-14.698-19.33-35.669-19.33-59.051v-201.854h-.007c0-3.839-1.464-7.678-4.393-10.607-5.858-5.858-15.355-5.858-21.213 0l-230.079 230.079c4.115 2.808 8.004 6.01 11.604 9.609 3.626 3.626 6.812 7.525 9.595 11.618l52.22-52.22c7.967 16.724 5.045 37.381-8.782 51.208-10.036 10.036-23.671 14.32-36.789 12.875 4.349 9.596 6.713 19.877 7.084 30.219 18.495-.517 36.834-7.797 50.919-21.881 17.33-17.33 24.386-41.099 21.176-63.677 22.577 3.21 46.347-3.847 63.677-21.176 25.611-25.611 28.789-65.288 9.539-94.392l45.449-45.449v165.647c0 30.48 9.394 58.343 26.45 78.455 2.938 3.464 4.108 7.916 3.298 12.535-1.03 5.868-6.037 10.874-11.904 11.904-4.589.805-9.023-.349-12.479-3.25-3.41-2.863-5.365-7.054-5.365-11.498 0-8.284-6.716-15-15-15s-15 6.716-15 15c0 13.33 5.858 25.894 16.073 34.472 8.166 6.857 18.417 10.521 28.987 10.521 2.646 0 5.313-.229 7.971-.696 18.164-3.188 33.077-18.102 36.266-36.266 2.344-13.36-1.289-26.892-9.967-37.125zm-125.532-106.07c-13.827 13.827-34.485 16.749-51.208 8.782l59.991-59.991c7.965 16.724 5.044 37.382-8.783 51.209z"/><path d="m157.222 256.309 33.734 33.734c5.858 5.858 5.858 15.355 0 21.213s-15.355 5.858-21.213 0l-33.734-33.734c-9.838 18.849-6.845 42.653 8.986 58.483 19.526 19.526 51.184 19.526 70.711 0 19.526-19.526 19.526-51.184 0-70.711-15.831-15.83-39.634-18.823-58.484-8.985z"/><path d="m157.222 256.309-36.976-36.976c-5.858-5.858-15.355-5.858-21.213 0l-42.426 42.426c-5.858 5.858-5.858 15.355 0 21.213s15.355 5.858 21.213 0l31.82-31.82 26.37 26.37c2.297-4.4 5.29-8.532 8.986-12.227 3.694-3.696 7.826-6.69 12.226-8.986z"/></g></g></g></svg>